<?xml version="1.0" encoding="UTF-8" standalone="no"?>
<svg
   xmlns:dc="http://purl.org/dc/elements/1.1/"
   xmlns:cc="http://creativecommons.org/ns#"
   xmlns:rdf="http://www.w3.org/1999/02/22-rdf-syntax-ns#"
   xmlns:svg="http://www.w3.org/2000/svg"
   xmlns="http://www.w3.org/2000/svg"
   viewBox="0 0 18.736 20.955999"
   height="20.955999"
   width="18.736"
   xml:space="preserve"
   id="svg2"
   version="1.1"><metadata
     id="metadata8"><rdf:RDF><cc:Work
         rdf:about=""><dc:format>image/svg+xml</dc:format><dc:type
           rdf:resource="http://purl.org/dc/dcmitype/StillImage" /></cc:Work></rdf:RDF></metadata><defs
     id="defs6"><clipPath
       id="clipPath18"
       clipPathUnits="userSpaceOnUse"><path
         id="path16"
         d="M 0,15.717 H 14.052 V 0 H 0 Z" /></clipPath></defs><g
     transform="matrix(1.3333333,0,0,-1.3333333,0,20.956)"
     id="g10"><g
       id="g12"><g
         clip-path="url(#clipPath18)"
         id="g14"><g
           transform="translate(13.5522,4.8387)"
           id="g20"><path
             id="path22"
             style="fill:none;stroke:#4f5965;stroke-width:1;stroke-linecap:round;stroke-linejoin:round;stroke-miterlimit:10;stroke-dasharray:none;stroke-opacity:1"
             d="m 0,0 c -0.749,0.797 -2.373,2.924 -2.24,6.271 0.079,1.979 -0.993,3.028 -2.084,3.583 -1.377,0.699 -3.027,0.699 -4.405,0 C -9.819,9.299 -10.891,8.25 -10.813,6.271 -10.68,2.924 -12.304,0.797 -13.052,0" /></g><g
           transform="translate(13.5522,4.8387)"
           id="g24"><path
             id="path26"
             style="fill:none;stroke:#4f5965;stroke-width:1;stroke-linecap:round;stroke-linejoin:round;stroke-miterlimit:10;stroke-dasharray:none;stroke-opacity:1"
             d="M 0,0 C -3.559,-2.899 -9.498,-2.896 -13.052,0" /></g><g
           transform="translate(5.5571,1.661)"
           id="g28"><path
             id="path30"
             style="fill:none;stroke:#4f5965;stroke-width:1;stroke-linecap:round;stroke-linejoin:round;stroke-miterlimit:10;stroke-dasharray:none;stroke-opacity:1"
             d="m 0,0 c 0,-0.641 0.659,-1.161 1.469,-1.161 0.81,0 1.469,0.52 1.469,1.161" /></g></g></g></g></svg>