<?xml version="1.0" encoding="UTF-8" standalone="no"?>
<svg
   xmlns:dc="http://purl.org/dc/elements/1.1/"
   xmlns:cc="http://creativecommons.org/ns#"
   xmlns:rdf="http://www.w3.org/1999/02/22-rdf-syntax-ns#"
   xmlns:svg="http://www.w3.org/2000/svg"
   xmlns="http://www.w3.org/2000/svg"
   viewBox="0 0 24.8472 24.850267"
   height="24.850267"
   width="24.8472"
   xml:space="preserve"
   id="svg2"
   version="1.1"><metadata
     id="metadata8"><rdf:RDF><cc:Work
         rdf:about=""><dc:format>image/svg+xml</dc:format><dc:type
           rdf:resource="http://purl.org/dc/dcmitype/StillImage" /></cc:Work></rdf:RDF></metadata><defs
     id="defs6"><clipPath
       id="clipPath18"
       clipPathUnits="userSpaceOnUse"><path
         id="path16"
         d="M 0,18.638 H 18.635 V 0 H 0 Z" /></clipPath></defs><g
     transform="matrix(1.3333333,0,0,-1.3333333,0,24.850267)"
     id="g10"><g
       id="g12"><g
         clip-path="url(#clipPath18)"
         id="g14"><g
           transform="translate(12.5827,9.3187)"
           id="g20"><path
             id="path22"
             style="fill:none;stroke:#ffffff;stroke-width:1;stroke-linecap:round;stroke-linejoin:round;stroke-miterlimit:4;stroke-dasharray:none;stroke-opacity:1"
             d="m 0,0 c 0,-1.804 -1.462,-3.266 -3.266,-3.266 -1.804,0 -3.266,1.462 -3.266,3.266 0,1.804 1.462,3.266 3.266,3.266 C -1.462,3.266 0,1.804 0,0 Z" /></g><g
           transform="translate(15.6613,7.7879)"
           id="g24"><path
             id="path26"
             style="fill:none;stroke:#ffffff;stroke-width:1;stroke-linecap:round;stroke-linejoin:round;stroke-miterlimit:4;stroke-dasharray:none;stroke-opacity:1"
             d="m 0,0 2.388,0.312 c 0.112,0.811 0.117,1.595 0,2.438 L 0,3.062 c -0.161,0.67 -0.425,1.298 -0.775,1.87 L 0.694,6.843 C 0.202,7.494 -0.378,8.074 -1.029,8.566 L -2.939,7.098 C -3.512,7.449 -4.14,7.713 -4.811,7.875 l -0.313,2.389 c -0.829,0.114 -1.612,0.114 -2.436,0.001 L -7.872,7.876 C -8.543,7.715 -9.173,7.451 -9.746,7.1 l -1.912,1.469 C -12.282,8.097 -12.877,7.512 -13.38,6.848 l 1.468,-1.911 c -0.351,-0.574 -0.616,-1.204 -0.777,-1.876 l -2.389,-0.312 c -0.107,-0.775 -0.115,-1.603 0,-2.436 L -12.689,0 c 0.161,-0.671 0.426,-1.302 0.777,-1.875 l -1.468,-1.911 c 0.472,-0.624 1.058,-1.219 1.722,-1.721 l 1.912,1.468 c 0.573,-0.35 1.203,-0.615 1.874,-0.776 l 0.312,-2.388 c 0.824,-0.113 1.607,-0.114 2.436,0.001 l 0.313,2.389 c 0.671,0.162 1.299,0.426 1.872,0.777 l 1.91,-1.469 c 0.651,0.492 1.231,1.073 1.723,1.723 L -0.775,-1.87 C -0.425,-1.298 -0.161,-0.67 0,0 Z" /></g></g></g></g></svg>