<?xml version="1.0" encoding="UTF-8" standalone="no"?>
<svg
   xmlns:dc="http://purl.org/dc/elements/1.1/"
   xmlns:cc="http://creativecommons.org/ns#"
   xmlns:rdf="http://www.w3.org/1999/02/22-rdf-syntax-ns#"
   xmlns:svg="http://www.w3.org/2000/svg"
   xmlns="http://www.w3.org/2000/svg"
   viewBox="0 0 48 48"
   height="48"
   width="48"
   xml:space="preserve"
   id="svg2"
   version="1.1"><metadata
     id="metadata8"><rdf:RDF><cc:Work
         rdf:about=""><dc:format>image/svg+xml</dc:format><dc:type
           rdf:resource="http://purl.org/dc/dcmitype/StillImage" /></cc:Work></rdf:RDF></metadata><defs
     id="defs6"><clipPath
       id="clipPath18"
       clipPathUnits="userSpaceOnUse"><path
         id="path16"
         d="M 0,36 H 36 V 0 H 0 Z" /></clipPath></defs><g
     transform="matrix(1.3333333,0,0,-1.3333333,0,48)"
     id="g10"><g
       id="g12"><g
         clip-path="url(#clipPath18)"
         id="g14"><g
           transform="translate(6.4079,32.7962)"
           id="g20"><path
             id="path22"
             style="fill:#00d6d6;fill-opacity:1;fill-rule:nonzero;stroke:none"
             d="m 0,0 c 0,-1.77 -1.435,-3.204 -3.204,-3.204 -1.77,0 -3.204,1.434 -3.204,3.204 0,1.77 1.434,3.204 3.204,3.204 C -1.435,3.204 0,1.77 0,0" /></g><g
           transform="translate(21.2038,32.7962)"
           id="g24"><path
             id="path26"
             style="fill:#00d6d6;fill-opacity:1;fill-rule:nonzero;stroke:none"
             d="m 0,0 c 0,-1.77 -1.435,-3.204 -3.204,-3.204 -1.77,0 -3.204,1.434 -3.204,3.204 0,1.77 1.434,3.204 3.204,3.204 C -1.435,3.204 0,1.77 0,0" /></g><g
           transform="translate(35.9997,32.7962)"
           id="g28"><path
             id="path30"
             style="fill:#00d6d6;fill-opacity:1;fill-rule:nonzero;stroke:none"
             d="m 0,0 c 0,-1.77 -1.435,-3.204 -3.204,-3.204 -1.77,0 -3.204,1.434 -3.204,3.204 0,1.77 1.434,3.204 3.204,3.204 C -1.435,3.204 0,1.77 0,0" /></g><g
           transform="translate(6.4079,18.0003)"
           id="g32"><path
             id="path34"
             style="fill:#00d6d6;fill-opacity:1;fill-rule:nonzero;stroke:none"
             d="m 0,0 c 0,-1.77 -1.435,-3.204 -3.204,-3.204 -1.77,0 -3.204,1.434 -3.204,3.204 0,1.77 1.434,3.204 3.204,3.204 C -1.435,3.204 0,1.77 0,0" /></g><g
           transform="translate(21.2038,18.0003)"
           id="g36"><path
             id="path38"
             style="fill:#00d6d6;fill-opacity:1;fill-rule:nonzero;stroke:none"
             d="m 0,0 c 0,-1.77 -1.435,-3.204 -3.204,-3.204 -1.77,0 -3.204,1.434 -3.204,3.204 0,1.77 1.434,3.204 3.204,3.204 C -1.435,3.204 0,1.77 0,0" /></g><g
           transform="translate(6.4079,3.2044)"
           id="g40"><path
             id="path42"
             style="fill:#00d6d6;fill-opacity:1;fill-rule:nonzero;stroke:none"
             d="m 0,0 c 0,-1.77 -1.435,-3.204 -3.204,-3.204 -1.77,0 -3.204,1.434 -3.204,3.204 0,1.77 1.434,3.204 3.204,3.204 C -1.435,3.204 0,1.77 0,0" /></g><g
           transform="translate(21.2038,3.2044)"
           id="g44"><path
             id="path46"
             style="fill:#00d6d6;fill-opacity:1;fill-rule:nonzero;stroke:none"
             d="m 0,0 c 0,-1.77 -1.435,-3.204 -3.204,-3.204 -1.77,0 -3.204,1.434 -3.204,3.204 0,1.77 1.434,3.204 3.204,3.204 C -1.435,3.204 0,1.77 0,0" /></g><g
           transform="translate(35.9997,18.0003)"
           id="g48"><path
             id="path50"
             style="fill:#00d6d6;fill-opacity:1;fill-rule:nonzero;stroke:none"
             d="m 0,0 c 0,-1.77 -1.435,-3.204 -3.204,-3.204 -1.77,0 -3.204,1.434 -3.204,3.204 0,1.77 1.434,3.204 3.204,3.204 C -1.435,3.204 0,1.77 0,0" /></g></g></g></g></svg>